<mxfile host="Electron" modified="2024-07-03T21:15:32.655Z" agent="Mozilla/5.0 (Windows NT 10.0; Win64; x64) AppleWebKit/537.36 (KHTML, like Gecko) draw.io/24.5.1 Chrome/124.0.6367.207 Electron/30.0.6 Safari/537.36" etag="T18noMSfbCBi0e6yOq1i" version="24.5.1" type="device" pages="4">
  <diagram name="Usecase" id="jkmI2qgqLgO8__6uJ6vO">
    <mxGraphModel dx="1877" dy="2959" grid="1" gridSize="10" guides="1" tooltips="1" connect="1" arrows="1" fold="1" page="1" pageScale="1" pageWidth="827" pageHeight="1169" math="0" shadow="0">
      <root>
        <mxCell id="0" />
        <mxCell id="1" parent="0" />
        <mxCell id="t7VqsHsXYHewgYC611r7-15" value="" style="verticalLabelPosition=bottom;verticalAlign=top;html=1;shape=mxgraph.basic.rect;fillColor2=none;strokeWidth=1;size=20;indent=5;" parent="1" vertex="1">
          <mxGeometry x="-685" y="-2170" width="545" height="852" as="geometry" />
        </mxCell>
        <mxCell id="S_qyeknPwZoZkuku2_iB-27" value="&lt;b&gt;&lt;u&gt;&lt;font style=&quot;font-size: 21px;&quot;&gt;Sticky Notes&lt;/font&gt;&lt;/u&gt;&lt;/b&gt;" style="text;html=1;align=center;verticalAlign=middle;resizable=0;points=[];autosize=1;strokeColor=none;fillColor=none;" parent="1" vertex="1">
          <mxGeometry x="-780" y="-2310" width="150" height="40" as="geometry" />
        </mxCell>
        <mxCell id="t7VqsHsXYHewgYC611r7-2" value="Admin" style="shape=umlActor;verticalLabelPosition=bottom;verticalAlign=top;html=1;outlineConnect=0;" parent="1" vertex="1">
          <mxGeometry x="-805" y="-1910" width="37" height="70" as="geometry" />
        </mxCell>
        <mxCell id="t7VqsHsXYHewgYC611r7-4" value="Update User" style="ellipse;whiteSpace=wrap;html=1;" parent="1" vertex="1">
          <mxGeometry x="-495" y="-1880" width="91" height="40" as="geometry" />
        </mxCell>
        <mxCell id="t7VqsHsXYHewgYC611r7-5" value="Delete User" style="ellipse;whiteSpace=wrap;html=1;" parent="1" vertex="1">
          <mxGeometry x="-495" y="-1800" width="91" height="30" as="geometry" />
        </mxCell>
        <mxCell id="t7VqsHsXYHewgYC611r7-7" value="Delete Notes" style="ellipse;whiteSpace=wrap;html=1;" parent="1" vertex="1">
          <mxGeometry x="-495" y="-1710" width="91" height="20" as="geometry" />
        </mxCell>
        <mxCell id="t7VqsHsXYHewgYC611r7-14" value="&lt;b&gt;&lt;font style=&quot;font-size: 16px;&quot;&gt;Sticky Notes&lt;/font&gt;&lt;/b&gt;" style="text;html=1;align=center;verticalAlign=middle;whiteSpace=wrap;rounded=0;" parent="1" vertex="1">
          <mxGeometry x="-495" y="-2140" width="151" height="10" as="geometry" />
        </mxCell>
        <mxCell id="t7VqsHsXYHewgYC611r7-10" value="View Notes&lt;span style=&quot;color: rgba(0, 0, 0, 0); font-family: monospace; font-size: 0px; text-align: start; text-wrap: nowrap;&quot;&gt;%3CmxGraphModel%3E%3Croot%3E%3CmxCell%20id%3D%220%22%2F%3E%3CmxCell%20id%3D%221%22%20parent%3D%220%22%2F%3E%3CmxCell%20id%3D%222%22%20value%3D%22Assign%20Task%22%20style%3D%22ellipse%3BwhiteSpace%3Dwrap%3Bhtml%3D1%3B%22%20vertex%3D%221%22%20parent%3D%221%22%3E%3CmxGeometry%20x%3D%22340%22%20y%3D%22330%22%20width%3D%22120%22%20height%3D%2280%22%20as%3D%22geometry%22%2F%3E%3C%2FmxCell%3E%3C%2Froot%3E%3C%2FmxGraphModel%3ENotes NN&lt;/span&gt;" style="ellipse;whiteSpace=wrap;html=1;" parent="1" vertex="1">
          <mxGeometry x="-504" y="-1512.5" width="91" height="20" as="geometry" />
        </mxCell>
        <mxCell id="t7VqsHsXYHewgYC611r7-16" value="Update Notes" style="ellipse;whiteSpace=wrap;html=1;" parent="1" vertex="1">
          <mxGeometry x="-495" y="-1400" width="91" height="20" as="geometry" />
        </mxCell>
        <mxCell id="t7VqsHsXYHewgYC611r7-17" value="Create User" style="ellipse;whiteSpace=wrap;html=1;" parent="1" vertex="1">
          <mxGeometry x="-485" y="-1950" width="91" height="40" as="geometry" />
        </mxCell>
        <mxCell id="t7VqsHsXYHewgYC611r7-36" value="Login" style="ellipse;whiteSpace=wrap;html=1;fontStyle=1;fontSize=14;" parent="1" vertex="1">
          <mxGeometry x="-260" y="-1640" width="91" height="60" as="geometry" />
        </mxCell>
        <mxCell id="t6NuGHyUj68xWrzg2_Om-3" value="User" style="shape=umlActor;verticalLabelPosition=bottom;verticalAlign=top;html=1;" parent="1" vertex="1">
          <mxGeometry x="-805" y="-1540" width="37" height="75" as="geometry" />
        </mxCell>
        <mxCell id="t6NuGHyUj68xWrzg2_Om-7" value="" style="endArrow=classic;html=1;rounded=0;entryX=0;entryY=0.5;entryDx=0;entryDy=0;exitX=1;exitY=0.421;exitDx=0;exitDy=0;exitPerimeter=0;" parent="1" source="t6NuGHyUj68xWrzg2_Om-3" target="t7VqsHsXYHewgYC611r7-9" edge="1">
          <mxGeometry width="50" height="50" relative="1" as="geometry">
            <mxPoint x="-735" y="-1920" as="sourcePoint" />
            <mxPoint x="-685" y="-1970" as="targetPoint" />
          </mxGeometry>
        </mxCell>
        <mxCell id="t6NuGHyUj68xWrzg2_Om-8" value="" style="endArrow=classic;html=1;rounded=0;entryX=0;entryY=0.5;entryDx=0;entryDy=0;" parent="1" target="t7VqsHsXYHewgYC611r7-10" edge="1">
          <mxGeometry width="50" height="50" relative="1" as="geometry">
            <mxPoint x="-768" y="-1509" as="sourcePoint" />
            <mxPoint x="-531" y="-1905" as="targetPoint" />
          </mxGeometry>
        </mxCell>
        <mxCell id="t6NuGHyUj68xWrzg2_Om-9" value="" style="endArrow=classic;html=1;rounded=0;entryX=0.013;entryY=0.245;entryDx=0;entryDy=0;entryPerimeter=0;exitX=0.886;exitY=0.443;exitDx=0;exitDy=0;exitPerimeter=0;" parent="1" source="t6NuGHyUj68xWrzg2_Om-3" target="t7VqsHsXYHewgYC611r7-16" edge="1">
          <mxGeometry width="50" height="50" relative="1" as="geometry">
            <mxPoint x="-775" y="-1500" as="sourcePoint" />
            <mxPoint x="-521" y="-1895" as="targetPoint" />
          </mxGeometry>
        </mxCell>
        <mxCell id="t6NuGHyUj68xWrzg2_Om-11" value="" style="endArrow=classic;html=1;rounded=0;entryX=0.322;entryY=0.535;entryDx=0;entryDy=0;entryPerimeter=0;exitX=0.908;exitY=0.443;exitDx=0;exitDy=0;exitPerimeter=0;" parent="1" source="t6NuGHyUj68xWrzg2_Om-3" edge="1">
          <mxGeometry width="50" height="50" relative="1" as="geometry">
            <mxPoint x="-758.6700000000001" y="-1492.5049999999999" as="sourcePoint" />
            <mxPoint x="-495" y="-1698.2599999999998" as="targetPoint" />
          </mxGeometry>
        </mxCell>
        <mxCell id="t6NuGHyUj68xWrzg2_Om-12" value="" style="endArrow=classic;html=1;rounded=0;entryX=0;entryY=0.5;entryDx=0;entryDy=0;exitX=0.753;exitY=0.529;exitDx=0;exitDy=0;exitPerimeter=0;" parent="1" source="t7VqsHsXYHewgYC611r7-2" edge="1">
          <mxGeometry width="50" height="50" relative="1" as="geometry">
            <mxPoint x="-775" y="-1972" as="sourcePoint" />
            <mxPoint x="-495" y="-1702" as="targetPoint" />
          </mxGeometry>
        </mxCell>
        <mxCell id="t6NuGHyUj68xWrzg2_Om-13" value="" style="endArrow=classic;html=1;rounded=0;entryX=0;entryY=0.5;entryDx=0;entryDy=0;exitX=0.747;exitY=0.489;exitDx=0;exitDy=0;exitPerimeter=0;" parent="1" source="t7VqsHsXYHewgYC611r7-2" target="t7VqsHsXYHewgYC611r7-17" edge="1">
          <mxGeometry width="50" height="50" relative="1" as="geometry">
            <mxPoint x="-765" y="-1640" as="sourcePoint" />
            <mxPoint x="-551" y="-1585" as="targetPoint" />
          </mxGeometry>
        </mxCell>
        <mxCell id="t6NuGHyUj68xWrzg2_Om-15" value="" style="endArrow=classic;html=1;rounded=0;entryX=0;entryY=0.5;entryDx=0;entryDy=0;" parent="1" source="t7VqsHsXYHewgYC611r7-2" target="t7VqsHsXYHewgYC611r7-5" edge="1">
          <mxGeometry width="50" height="50" relative="1" as="geometry">
            <mxPoint x="-785" y="-1965" as="sourcePoint" />
            <mxPoint x="-591" y="-1445" as="targetPoint" />
          </mxGeometry>
        </mxCell>
        <mxCell id="t6NuGHyUj68xWrzg2_Om-17" value="" style="endArrow=classic;html=1;rounded=0;entryX=0.063;entryY=0.57;entryDx=0;entryDy=0;entryPerimeter=0;" parent="1" source="t7VqsHsXYHewgYC611r7-2" target="t7VqsHsXYHewgYC611r7-4" edge="1">
          <mxGeometry width="50" height="50" relative="1" as="geometry">
            <mxPoint x="-785" y="-1965" as="sourcePoint" />
            <mxPoint x="-509" y="-1953" as="targetPoint" />
          </mxGeometry>
        </mxCell>
        <mxCell id="t6NuGHyUj68xWrzg2_Om-28" value="&amp;lt;&amp;lt;include&amp;gt;&amp;gt;" style="endArrow=classic;html=1;rounded=0;exitX=0.923;exitY=0.24;exitDx=0;exitDy=0;exitPerimeter=0;entryX=0.283;entryY=0.925;entryDx=0;entryDy=0;entryPerimeter=0;" parent="1" source="t7VqsHsXYHewgYC611r7-16" target="t7VqsHsXYHewgYC611r7-36" edge="1">
          <mxGeometry width="50" height="50" relative="1" as="geometry">
            <mxPoint x="-375" y="-1395" as="sourcePoint" />
            <mxPoint x="-225" y="-1630" as="targetPoint" />
          </mxGeometry>
        </mxCell>
        <mxCell id="t6NuGHyUj68xWrzg2_Om-30" value="&amp;lt;&amp;lt;include&amp;gt;&amp;gt;" style="endArrow=classic;html=1;rounded=0;exitX=1;exitY=0.252;exitDx=0;exitDy=0;exitPerimeter=0;entryX=0.057;entryY=0.815;entryDx=0;entryDy=0;entryPerimeter=0;" parent="1" source="t7VqsHsXYHewgYC611r7-10" target="t7VqsHsXYHewgYC611r7-36" edge="1">
          <mxGeometry width="50" height="50" relative="1" as="geometry">
            <mxPoint x="-405" y="-1425" as="sourcePoint" />
            <mxPoint x="-255" y="-1660" as="targetPoint" />
          </mxGeometry>
        </mxCell>
        <mxCell id="t6NuGHyUj68xWrzg2_Om-31" value="&amp;lt;&amp;lt;include&amp;gt;&amp;gt;" style="endArrow=classic;html=1;rounded=0;exitX=1;exitY=0.5;exitDx=0;exitDy=0;entryX=-0.05;entryY=0.505;entryDx=0;entryDy=0;entryPerimeter=0;" parent="1" source="t7VqsHsXYHewgYC611r7-9" target="t7VqsHsXYHewgYC611r7-36" edge="1">
          <mxGeometry width="50" height="50" relative="1" as="geometry">
            <mxPoint x="-405" y="-1455" as="sourcePoint" />
            <mxPoint x="-255" y="-1690" as="targetPoint" />
          </mxGeometry>
        </mxCell>
        <mxCell id="t6NuGHyUj68xWrzg2_Om-32" value="&amp;lt;&amp;lt;include&amp;gt;&amp;gt;" style="endArrow=classic;html=1;rounded=0;exitX=1;exitY=0.5;exitDx=0;exitDy=0;entryX=0.21;entryY=0.045;entryDx=0;entryDy=0;entryPerimeter=0;" parent="1" source="t7VqsHsXYHewgYC611r7-7" target="t7VqsHsXYHewgYC611r7-36" edge="1">
          <mxGeometry width="50" height="50" relative="1" as="geometry">
            <mxPoint x="-184.70070422535218" y="-1871" as="sourcePoint" />
            <mxPoint x="-255" y="-1750" as="targetPoint" />
          </mxGeometry>
        </mxCell>
        <mxCell id="t6NuGHyUj68xWrzg2_Om-36" value="" style="endArrow=classic;html=1;rounded=0;" parent="1" edge="1">
          <mxGeometry width="50" height="50" relative="1" as="geometry">
            <mxPoint x="-790" y="-1760" as="sourcePoint" />
            <mxPoint x="-790.5" y="-1555" as="targetPoint" />
          </mxGeometry>
        </mxCell>
        <mxCell id="4Z1HpWx67jTLDXfdyShB-1" value="Please check the&amp;nbsp;&lt;div&gt;Sticky Notes Diagram&amp;nbsp;&lt;div&gt;on different Pages&amp;nbsp;&lt;/div&gt;&lt;/div&gt;" style="whiteSpace=wrap;html=1;shape=mxgraph.basic.document;fillColor=#fff2cc;strokeColor=#d6b656;" parent="1" vertex="1">
          <mxGeometry x="-120" y="-2170" width="101" height="120" as="geometry" />
        </mxCell>
        <mxCell id="t7VqsHsXYHewgYC611r7-9" value="Create Notes&lt;span style=&quot;color: rgba(0, 0, 0, 0); font-family: monospace; font-size: 0px; text-align: start; text-wrap: nowrap;&quot;&gt;%3CmxGraphModel%3E%3Croot%3E%3CmxCell%20id%3D%220%22%2F%3E%3CmxCell%20id%3D%221%22%20parent%3D%220%22%2F%3E%3CmxCell%20id%3D%222%22%20value%3D%22Assign%20Task%22%20style%3D%22ellipse%3BwhiteSpace%3Dwrap%3Bhtml%3D1%3B%22%20vertex%3D%221%22%20parent%3D%221%22%3E%3CmxGeometry%20x%3D%22340%22%20y%3D%22330%22%20width%3D%22120%22%20height%3D%2280%22%20as%3D%22geometry%22%2F%3E%3C%2FmxCell%3E%3C%2Froot%3E%3C%2FmxGraphModel%3&lt;/span&gt;" style="ellipse;whiteSpace=wrap;html=1;" parent="1" vertex="1">
          <mxGeometry x="-504" y="-1600" width="91" height="20" as="geometry" />
        </mxCell>
      </root>
    </mxGraphModel>
  </diagram>
  <diagram id="UcZhA1WmjuhzroGroPHD" name="Class-diagram">
    <mxGraphModel dx="9233" dy="14680" grid="1" gridSize="10" guides="1" tooltips="1" connect="1" arrows="1" fold="1" page="1" pageScale="1" pageWidth="1169" pageHeight="827" math="0" shadow="0">
      <root>
        <mxCell id="0" />
        <mxCell id="1" parent="0" />
        <mxCell id="0P0J9NfMZhSMz9HnPzZe-9" value="&lt;p style=&quot;margin:0px;margin-top:4px;text-align:center;&quot;&gt;&lt;b&gt;Controller&lt;/b&gt;&lt;/p&gt;&lt;hr size=&quot;1&quot; style=&quot;border-style:solid;&quot;&gt;&lt;p style=&quot;margin:0px;margin-left:4px;&quot;&gt;- Admin&lt;/p&gt;&lt;hr size=&quot;1&quot; style=&quot;border-style:solid;&quot;&gt;&lt;p style=&quot;margin:0px;margin-left:4px;&quot;&gt;+ Start()&lt;/p&gt;&lt;p style=&quot;margin:0px;margin-left:4px;&quot;&gt;- login()&lt;/p&gt;&lt;p style=&quot;margin:0px;margin-left:4px;&quot;&gt;- logout()&lt;/p&gt;&lt;p style=&quot;margin:0px;margin-left:4px;&quot;&gt;- main_menu()&lt;/p&gt;&lt;p style=&quot;margin:0px;margin-left:4px;&quot;&gt;- create_note()&lt;/p&gt;&lt;p style=&quot;margin:0px;margin-left:4px;&quot;&gt;- get_all_notes()&lt;/p&gt;" style="verticalAlign=top;align=left;overflow=fill;html=1;whiteSpace=wrap;" parent="1" vertex="1">
          <mxGeometry x="-7780" y="-14049" width="160" height="160" as="geometry" />
        </mxCell>
        <mxCell id="0P0J9NfMZhSMz9HnPzZe-10" value="&lt;p style=&quot;margin:0px;margin-top:4px;text-align:center;&quot;&gt;&lt;b&gt;Model&lt;/b&gt;&lt;/p&gt;&lt;hr size=&quot;1&quot; style=&quot;border-style:solid;&quot;&gt;&lt;p style=&quot;margin:0px;margin-left:4px;&quot;&gt;# NoteForm&lt;/p&gt;&lt;hr size=&quot;1&quot; style=&quot;border-style:solid;&quot;&gt;&lt;p style=&quot;margin:0px;margin-left:4px;&quot;&gt;+ save()&lt;/p&gt;&lt;p style=&quot;margin:0px;margin-left:4px;&quot;&gt;+ update()&lt;/p&gt;" style="verticalAlign=top;align=left;overflow=fill;html=1;whiteSpace=wrap;" parent="1" vertex="1">
          <mxGeometry x="-8050" y="-13830" width="160" height="100" as="geometry" />
        </mxCell>
        <mxCell id="0P0J9NfMZhSMz9HnPzZe-11" value="&lt;p style=&quot;margin:0px;margin-top:4px;text-align:center;&quot;&gt;&lt;b&gt;View&lt;/b&gt;&lt;/p&gt;&lt;p style=&quot;margin:0px;margin-left:4px;&quot;&gt;&lt;br&gt;&lt;/p&gt;&lt;hr size=&quot;1&quot; style=&quot;border-style:solid;&quot;&gt;&lt;p style=&quot;margin:0px;margin-left:4px;&quot;&gt;+ view_notes()&lt;/p&gt;&lt;p style=&quot;margin:0px;margin-left:4px;&quot;&gt;+ view_note()&lt;/p&gt;&lt;p style=&quot;margin:0px;margin-left:4px;&quot;&gt;&lt;br&gt;&lt;/p&gt;&lt;p style=&quot;margin:0px;margin-left:4px;&quot;&gt;&lt;br&gt;&lt;/p&gt;" style="verticalAlign=top;align=left;overflow=fill;html=1;whiteSpace=wrap;" parent="1" vertex="1">
          <mxGeometry x="-7480" y="-13830" width="160" height="110" as="geometry" />
        </mxCell>
        <mxCell id="0P0J9NfMZhSMz9HnPzZe-12" value="&lt;p style=&quot;margin:0px;margin-top:4px;text-align:center;&quot;&gt;&lt;b&gt;Notes&lt;/b&gt;&lt;/p&gt;&lt;hr size=&quot;1&quot; style=&quot;border-style:solid;&quot;&gt;&lt;p style=&quot;margin:0px;margin-left:4px;&quot;&gt;&lt;br&gt;&lt;/p&gt;&lt;p style=&quot;margin:0px;margin-left:4px;&quot;&gt;+ title:str&lt;/p&gt;&lt;p style=&quot;margin:0px;margin-left:4px;&quot;&gt;+ description:s&lt;span style=&quot;background-color: initial;&quot;&gt;tr&lt;/span&gt;&lt;/p&gt;&lt;p style=&quot;margin:0px;margin-left:4px;&quot;&gt;+ created_by: str&lt;span style=&quot;background-color: initial;&quot;&gt;&lt;br&gt;&lt;/span&gt;&lt;/p&gt;&lt;p style=&quot;margin:0px;margin-left:4px;&quot;&gt;+ is_completed:boolean&lt;/p&gt;&lt;hr size=&quot;1&quot; style=&quot;border-style:solid;&quot;&gt;&lt;p style=&quot;margin:0px;margin-left:4px;&quot;&gt;+&amp;nbsp; get_created_by()&lt;/p&gt;&lt;p style=&quot;margin:0px;margin-left:4px;&quot;&gt;+ get_title()&lt;/p&gt;&lt;p style=&quot;margin:0px;margin-left:4px;&quot;&gt;+ set_title()&lt;/p&gt;&lt;p style=&quot;margin:0px;margin-left:4px;&quot;&gt;+ get_description()&lt;/p&gt;&lt;p style=&quot;margin:0px;margin-left:4px;&quot;&gt;+ set_&lt;span style=&quot;background-color: initial;&quot;&gt;description&lt;/span&gt;&lt;span style=&quot;background-color: initial;&quot;&gt;()&lt;/span&gt;&lt;/p&gt;&lt;p style=&quot;margin:0px;margin-left:4px;&quot;&gt;+ save()&lt;/p&gt;&lt;p style=&quot;margin:0px;margin-left:4px;&quot;&gt;+ get_notes()&lt;/p&gt;&lt;p style=&quot;margin:0px;margin-left:4px;&quot;&gt;+ set_notes()&lt;/p&gt;" style="verticalAlign=top;align=left;overflow=fill;html=1;whiteSpace=wrap;" parent="1" vertex="1">
          <mxGeometry x="-7790" y="-13670" width="160" height="230" as="geometry" />
        </mxCell>
        <mxCell id="o_TgF0NUXrPxaTb3aU7L-1" value="" style="endArrow=open;endFill=1;endSize=12;html=1;rounded=0;exitX=0.444;exitY=1.016;exitDx=0;exitDy=0;exitPerimeter=0;entryX=0.019;entryY=0.191;entryDx=0;entryDy=0;entryPerimeter=0;" parent="1" source="0P0J9NfMZhSMz9HnPzZe-9" target="0P0J9NfMZhSMz9HnPzZe-11" edge="1">
          <mxGeometry width="160" relative="1" as="geometry">
            <mxPoint x="-7750" y="-13830" as="sourcePoint" />
            <mxPoint x="-7590" y="-13830" as="targetPoint" />
          </mxGeometry>
        </mxCell>
        <mxCell id="o_TgF0NUXrPxaTb3aU7L-2" value="" style="endArrow=open;endFill=1;endSize=12;html=1;rounded=0;exitX=0.424;exitY=1.006;exitDx=0;exitDy=0;exitPerimeter=0;entryX=1.029;entryY=0.162;entryDx=0;entryDy=0;entryPerimeter=0;" parent="1" source="0P0J9NfMZhSMz9HnPzZe-9" target="0P0J9NfMZhSMz9HnPzZe-10" edge="1">
          <mxGeometry width="160" relative="1" as="geometry">
            <mxPoint x="-7679" y="-13867" as="sourcePoint" />
            <mxPoint x="-7527" y="-13809" as="targetPoint" />
          </mxGeometry>
        </mxCell>
        <mxCell id="o_TgF0NUXrPxaTb3aU7L-9" value="" style="endArrow=block;html=1;rounded=0;align=center;verticalAlign=bottom;endFill=0;labelBackgroundColor=none;endSize=8;entryX=0.25;entryY=0;entryDx=0;entryDy=0;" parent="1" target="0P0J9NfMZhSMz9HnPzZe-12" edge="1">
          <mxGeometry relative="1" as="geometry">
            <mxPoint x="-7970" y="-13730" as="sourcePoint" />
            <mxPoint x="-7800" y="-13710" as="targetPoint" />
          </mxGeometry>
        </mxCell>
        <mxCell id="o_TgF0NUXrPxaTb3aU7L-10" value="" style="resizable=0;html=1;align=center;verticalAlign=top;labelBackgroundColor=none;" parent="o_TgF0NUXrPxaTb3aU7L-9" connectable="0" vertex="1">
          <mxGeometry relative="1" as="geometry" />
        </mxCell>
      </root>
    </mxGraphModel>
  </diagram>
  <diagram id="TSe5Q54_TNseldWQdHOw" name="Sequence-diagram">
    <mxGraphModel dx="2704" dy="8804" grid="1" gridSize="10" guides="1" tooltips="1" connect="1" arrows="1" fold="1" page="1" pageScale="1" pageWidth="827" pageHeight="1169" math="0" shadow="0">
      <root>
        <mxCell id="0" />
        <mxCell id="1" parent="0" />
        <mxCell id="EFgii_mU7-cICbm7P2Ep-20" value="" style="endArrow=none;html=1;rounded=0;" parent="1" source="EFgii_mU7-cICbm7P2Ep-29" edge="1">
          <mxGeometry width="50" height="50" relative="1" as="geometry">
            <mxPoint x="-1226" y="-7459.999975585937" as="sourcePoint" />
            <mxPoint x="-1223" y="-8058.4" as="targetPoint" />
          </mxGeometry>
        </mxCell>
        <mxCell id="EFgii_mU7-cICbm7P2Ep-19" value="" style="endArrow=none;html=1;rounded=0;" parent="1" source="P2R5-MRjnk4V7SUpuxV5-34" edge="1">
          <mxGeometry width="50" height="50" relative="1" as="geometry">
            <mxPoint x="-1420.5" y="-7630" as="sourcePoint" />
            <mxPoint x="-1420" y="-8070" as="targetPoint" />
          </mxGeometry>
        </mxCell>
        <mxCell id="P2R5-MRjnk4V7SUpuxV5-1" value="&lt;b&gt;&lt;font style=&quot;font-size: 18px;&quot;&gt;View&lt;/font&gt;&lt;/b&gt;" style="rounded=0;whiteSpace=wrap;html=1;" parent="1" vertex="1">
          <mxGeometry x="-1480" y="-8130" width="120" height="60" as="geometry" />
        </mxCell>
        <mxCell id="P2R5-MRjnk4V7SUpuxV5-2" value="Actor" style="shape=umlActor;verticalLabelPosition=bottom;verticalAlign=top;html=1;outlineConnect=0;" parent="1" vertex="1">
          <mxGeometry x="-1630" y="-8160" width="30" height="60" as="geometry" />
        </mxCell>
        <mxCell id="P2R5-MRjnk4V7SUpuxV5-3" value="&lt;font style=&quot;font-size: 18px;&quot;&gt;&lt;b&gt;Control&lt;/b&gt;&lt;/font&gt;" style="rounded=0;whiteSpace=wrap;html=1;" parent="1" vertex="1">
          <mxGeometry x="-1285" y="-8130" width="120" height="60" as="geometry" />
        </mxCell>
        <mxCell id="P2R5-MRjnk4V7SUpuxV5-4" value="&lt;b&gt;&lt;font style=&quot;font-size: 18px;&quot;&gt;Model&lt;/font&gt;&lt;/b&gt;" style="rounded=0;whiteSpace=wrap;html=1;" parent="1" vertex="1">
          <mxGeometry x="-1090" y="-8130" width="120" height="60" as="geometry" />
        </mxCell>
        <mxCell id="P2R5-MRjnk4V7SUpuxV5-16" value="" style="endArrow=none;html=1;rounded=0;" parent="1" edge="1">
          <mxGeometry width="50" height="50" relative="1" as="geometry">
            <mxPoint x="-1620" y="-7290" as="sourcePoint" />
            <mxPoint x="-1620" y="-8070" as="targetPoint" />
          </mxGeometry>
        </mxCell>
        <mxCell id="P2R5-MRjnk4V7SUpuxV5-35" value="Create Notes" style="html=1;verticalAlign=bottom;endArrow=block;curved=0;rounded=0;entryX=0;entryY=0;entryDx=0;entryDy=5;" parent="1" target="P2R5-MRjnk4V7SUpuxV5-34" edge="1">
          <mxGeometry relative="1" as="geometry">
            <mxPoint x="-1610" y="-7995" as="sourcePoint" />
          </mxGeometry>
        </mxCell>
        <mxCell id="P2R5-MRjnk4V7SUpuxV5-36" value="Show Notes view" style="html=1;verticalAlign=bottom;endArrow=open;dashed=1;endSize=8;curved=0;rounded=0;exitX=0;exitY=1;exitDx=0;exitDy=-5;" parent="1" edge="1">
          <mxGeometry relative="1" as="geometry">
            <mxPoint x="-1620" y="-7900" as="targetPoint" />
            <mxPoint x="-1435" y="-7900" as="sourcePoint" />
          </mxGeometry>
        </mxCell>
        <mxCell id="P2R5-MRjnk4V7SUpuxV5-38" value="" style="html=1;points=[[0,0,0,0,5],[0,1,0,0,-5],[1,0,0,0,5],[1,1,0,0,-5]];perimeter=orthogonalPerimeter;outlineConnect=0;targetShapes=umlLifeline;portConstraint=eastwest;newEdgeStyle={&quot;curved&quot;:0,&quot;rounded&quot;:0};" parent="1" vertex="1">
          <mxGeometry x="-1230" y="-8000" width="10" height="110" as="geometry" />
        </mxCell>
        <mxCell id="P2R5-MRjnk4V7SUpuxV5-39" value="Send Post Data" style="html=1;verticalAlign=bottom;endArrow=block;curved=0;rounded=0;entryX=0;entryY=0;entryDx=0;entryDy=5;exitX=1;exitY=0;exitDx=0;exitDy=5;exitPerimeter=0;" parent="1" edge="1">
          <mxGeometry relative="1" as="geometry">
            <mxPoint x="-1419" y="-7990" as="sourcePoint" />
            <mxPoint x="-1230" y="-7990" as="targetPoint" />
          </mxGeometry>
        </mxCell>
        <mxCell id="P2R5-MRjnk4V7SUpuxV5-40" value="Return Post" style="html=1;verticalAlign=bottom;endArrow=open;dashed=1;endSize=8;curved=0;rounded=0;exitX=0;exitY=1;exitDx=0;exitDy=-5;entryX=1.82;entryY=0.964;entryDx=0;entryDy=0;entryPerimeter=0;" parent="1" edge="1">
          <mxGeometry relative="1" as="geometry">
            <mxPoint x="-1415" y="-7910" as="targetPoint" />
            <mxPoint x="-1234.2" y="-7908.16" as="sourcePoint" />
          </mxGeometry>
        </mxCell>
        <mxCell id="P2R5-MRjnk4V7SUpuxV5-41" value="Return to main menu&lt;div&gt;if post create not successful&lt;/div&gt;" style="html=1;verticalAlign=bottom;endArrow=open;dashed=1;endSize=8;curved=0;rounded=0;" parent="1" edge="1">
          <mxGeometry relative="1" as="geometry">
            <mxPoint x="-1210" y="-7930" as="targetPoint" />
            <mxPoint x="-1020" y="-7930" as="sourcePoint" />
            <mxPoint as="offset" />
          </mxGeometry>
        </mxCell>
        <mxCell id="P2R5-MRjnk4V7SUpuxV5-50" value="" style="html=1;points=[[0,0,0,0,5],[0,1,0,0,-5],[1,0,0,0,5],[1,1,0,0,-5]];perimeter=orthogonalPerimeter;outlineConnect=0;targetShapes=umlLifeline;portConstraint=eastwest;newEdgeStyle={&quot;curved&quot;:0,&quot;rounded&quot;:0};" parent="1" vertex="1">
          <mxGeometry x="-1015" y="-7990" width="10" height="80" as="geometry" />
        </mxCell>
        <mxCell id="P2R5-MRjnk4V7SUpuxV5-51" value="Create Notes" style="html=1;verticalAlign=bottom;endArrow=block;curved=0;rounded=0;entryX=0;entryY=0;entryDx=0;entryDy=5;" parent="1" source="P2R5-MRjnk4V7SUpuxV5-38" target="P2R5-MRjnk4V7SUpuxV5-50" edge="1">
          <mxGeometry relative="1" as="geometry">
            <mxPoint x="-1085" y="-7815" as="sourcePoint" />
            <Array as="points">
              <mxPoint x="-1120" y="-7985" />
            </Array>
          </mxGeometry>
        </mxCell>
        <mxCell id="MAHTKfZVgGLvJQvPPEhZ-2" value="View Notes" style="html=1;verticalAlign=bottom;endArrow=block;curved=0;rounded=0;entryX=0;entryY=0;entryDx=0;entryDy=5;" parent="1" target="MAHTKfZVgGLvJQvPPEhZ-1" edge="1">
          <mxGeometry relative="1" as="geometry">
            <mxPoint x="-1620" y="-7835" as="sourcePoint" />
          </mxGeometry>
        </mxCell>
        <mxCell id="MAHTKfZVgGLvJQvPPEhZ-3" value="Show Notes" style="html=1;verticalAlign=bottom;endArrow=open;dashed=1;endSize=8;curved=0;rounded=0;" parent="1" edge="1">
          <mxGeometry x="0.0767" y="-8" relative="1" as="geometry">
            <mxPoint x="-1620" y="-7739.5" as="targetPoint" />
            <mxPoint x="-1425" y="-7740" as="sourcePoint" />
            <mxPoint as="offset" />
          </mxGeometry>
        </mxCell>
        <mxCell id="EFgii_mU7-cICbm7P2Ep-3" value="Get Data" style="html=1;verticalAlign=bottom;endArrow=block;curved=0;rounded=0;entryX=0;entryY=0;entryDx=0;entryDy=5;exitX=1;exitY=0;exitDx=0;exitDy=5;exitPerimeter=0;" parent="1" edge="1">
          <mxGeometry relative="1" as="geometry">
            <mxPoint x="-1415" y="-7820" as="sourcePoint" />
            <mxPoint x="-1230" y="-7820" as="targetPoint" />
            <Array as="points">
              <mxPoint x="-1370" y="-7820" />
              <mxPoint x="-1320" y="-7820" />
            </Array>
          </mxGeometry>
        </mxCell>
        <mxCell id="EFgii_mU7-cICbm7P2Ep-4" value="Return Data" style="html=1;verticalAlign=bottom;endArrow=open;dashed=1;endSize=8;curved=0;rounded=0;" parent="1" edge="1">
          <mxGeometry x="-0.0053" relative="1" as="geometry">
            <mxPoint x="-1415" y="-7752" as="targetPoint" />
            <mxPoint x="-1226" y="-7752" as="sourcePoint" />
            <mxPoint as="offset" />
          </mxGeometry>
        </mxCell>
        <mxCell id="EFgii_mU7-cICbm7P2Ep-6" value="Update Notes" style="html=1;verticalAlign=bottom;endArrow=block;curved=0;rounded=0;entryX=0;entryY=0;entryDx=0;entryDy=5;" parent="1" edge="1">
          <mxGeometry relative="1" as="geometry">
            <mxPoint x="-1610" y="-7667" as="sourcePoint" />
            <mxPoint x="-1425" y="-7667" as="targetPoint" />
          </mxGeometry>
        </mxCell>
        <mxCell id="EFgii_mU7-cICbm7P2Ep-7" value="Show User Updated Notes" style="html=1;verticalAlign=bottom;endArrow=open;dashed=1;endSize=8;curved=0;rounded=0;exitX=0;exitY=1;exitDx=0;exitDy=-5;" parent="1" edge="1">
          <mxGeometry relative="1" as="geometry">
            <mxPoint x="-1620" y="-7600" as="targetPoint" />
            <mxPoint x="-1425" y="-7600" as="sourcePoint" />
          </mxGeometry>
        </mxCell>
        <mxCell id="EFgii_mU7-cICbm7P2Ep-8" value="" style="endArrow=none;html=1;rounded=0;" parent="1" source="EFgii_mU7-cICbm7P2Ep-46" target="EFgii_mU7-cICbm7P2Ep-5" edge="1">
          <mxGeometry width="50" height="50" relative="1" as="geometry">
            <mxPoint x="-1420" y="-7270" as="sourcePoint" />
            <mxPoint x="-1420.5" y="-8290" as="targetPoint" />
          </mxGeometry>
        </mxCell>
        <mxCell id="EFgii_mU7-cICbm7P2Ep-10" value="Return to main menu&amp;nbsp;&lt;div&gt;if post update not successful&lt;/div&gt;" style="html=1;verticalAlign=bottom;endArrow=block;curved=0;rounded=0;entryX=0;entryY=0;entryDx=0;entryDy=5;exitX=1;exitY=0;exitDx=0;exitDy=5;exitPerimeter=0;" parent="1" edge="1">
          <mxGeometry x="0.027" relative="1" as="geometry">
            <mxPoint x="-1415" y="-7670" as="sourcePoint" />
            <mxPoint x="-1230" y="-7670" as="targetPoint" />
            <mxPoint as="offset" />
          </mxGeometry>
        </mxCell>
        <mxCell id="EFgii_mU7-cICbm7P2Ep-11" value="Return Task" style="html=1;verticalAlign=bottom;endArrow=open;dashed=1;endSize=8;curved=0;rounded=0;exitX=0;exitY=1;exitDx=0;exitDy=-5;" parent="1" edge="1">
          <mxGeometry x="0.0162" relative="1" as="geometry">
            <mxPoint x="-1415" y="-7590" as="targetPoint" />
            <mxPoint x="-1230" y="-7590" as="sourcePoint" />
            <mxPoint as="offset" />
          </mxGeometry>
        </mxCell>
        <mxCell id="EFgii_mU7-cICbm7P2Ep-12" value="" style="endArrow=none;html=1;rounded=0;" parent="1" source="EFgii_mU7-cICbm7P2Ep-5" target="MAHTKfZVgGLvJQvPPEhZ-1" edge="1">
          <mxGeometry width="50" height="50" relative="1" as="geometry">
            <mxPoint x="-1420" y="-7430" as="sourcePoint" />
            <mxPoint x="-1420.5" y="-8290" as="targetPoint" />
          </mxGeometry>
        </mxCell>
        <mxCell id="EFgii_mU7-cICbm7P2Ep-2" value="" style="html=1;points=[[0,0,0,0,5],[0,1,0,0,-5],[1,0,0,0,5],[1,1,0,0,-5]];perimeter=orthogonalPerimeter;outlineConnect=0;targetShapes=umlLifeline;portConstraint=eastwest;newEdgeStyle={&quot;curved&quot;:0,&quot;rounded&quot;:0};" parent="1" vertex="1">
          <mxGeometry x="-1230" y="-7840" width="10" height="120" as="geometry" />
        </mxCell>
        <mxCell id="EFgii_mU7-cICbm7P2Ep-21" value="" style="endArrow=none;html=1;rounded=0;" parent="1" source="EFgii_mU7-cICbm7P2Ep-17" edge="1">
          <mxGeometry width="50" height="50" relative="1" as="geometry">
            <mxPoint x="-1010.5" y="-7470" as="sourcePoint" />
            <mxPoint x="-1010.5" y="-8070" as="targetPoint" />
          </mxGeometry>
        </mxCell>
        <mxCell id="EFgii_mU7-cICbm7P2Ep-23" value="" style="endArrow=none;html=1;rounded=0;" parent="1" source="MAHTKfZVgGLvJQvPPEhZ-1" target="P2R5-MRjnk4V7SUpuxV5-34" edge="1">
          <mxGeometry width="50" height="50" relative="1" as="geometry">
            <mxPoint x="-1420.5" y="-7630" as="sourcePoint" />
            <mxPoint x="-1420.5" y="-8030" as="targetPoint" />
          </mxGeometry>
        </mxCell>
        <mxCell id="P2R5-MRjnk4V7SUpuxV5-34" value="" style="html=1;points=[[0,0,0,0,5],[0,1,0,0,-5],[1,0,0,0,5],[1,1,0,0,-5]];perimeter=orthogonalPerimeter;outlineConnect=0;targetShapes=umlLifeline;portConstraint=eastwest;newEdgeStyle={&quot;curved&quot;:0,&quot;rounded&quot;:0};" parent="1" vertex="1">
          <mxGeometry x="-1425" y="-8000" width="10" height="120" as="geometry" />
        </mxCell>
        <mxCell id="EFgii_mU7-cICbm7P2Ep-25" value="" style="endArrow=none;html=1;rounded=0;" parent="1" source="EFgii_mU7-cICbm7P2Ep-5" target="MAHTKfZVgGLvJQvPPEhZ-1" edge="1">
          <mxGeometry width="50" height="50" relative="1" as="geometry">
            <mxPoint x="-1420.5" y="-7630" as="sourcePoint" />
            <mxPoint x="-1420" y="-7880" as="targetPoint" />
          </mxGeometry>
        </mxCell>
        <mxCell id="MAHTKfZVgGLvJQvPPEhZ-1" value="" style="html=1;points=[[0,0,0,0,5],[0,1,0,0,-5],[1,0,0,0,5],[1,1,0,0,-5]];perimeter=orthogonalPerimeter;outlineConnect=0;targetShapes=umlLifeline;portConstraint=eastwest;newEdgeStyle={&quot;curved&quot;:0,&quot;rounded&quot;:0};" parent="1" vertex="1">
          <mxGeometry x="-1425" y="-7840" width="10" height="120" as="geometry" />
        </mxCell>
        <mxCell id="EFgii_mU7-cICbm7P2Ep-27" value="" style="endArrow=none;html=1;rounded=0;" parent="1" target="EFgii_mU7-cICbm7P2Ep-5" edge="1">
          <mxGeometry width="50" height="50" relative="1" as="geometry">
            <mxPoint x="-1420.5" y="-7630" as="sourcePoint" />
            <mxPoint x="-1420" y="-7720" as="targetPoint" />
          </mxGeometry>
        </mxCell>
        <mxCell id="EFgii_mU7-cICbm7P2Ep-5" value="" style="html=1;points=[[0,0,0,0,5],[0,1,0,0,-5],[1,0,0,0,5],[1,1,0,0,-5]];perimeter=orthogonalPerimeter;outlineConnect=0;targetShapes=umlLifeline;portConstraint=eastwest;newEdgeStyle={&quot;curved&quot;:0,&quot;rounded&quot;:0};" parent="1" vertex="1">
          <mxGeometry x="-1425" y="-7680" width="10" height="100" as="geometry" />
        </mxCell>
        <mxCell id="EFgii_mU7-cICbm7P2Ep-30" value="" style="endArrow=none;html=1;rounded=0;" parent="1" source="EFgii_mU7-cICbm7P2Ep-48" target="EFgii_mU7-cICbm7P2Ep-29" edge="1">
          <mxGeometry width="50" height="50" relative="1" as="geometry">
            <mxPoint x="-1226" y="-7310" as="sourcePoint" />
            <mxPoint x="-1223" y="-8058.4" as="targetPoint" />
          </mxGeometry>
        </mxCell>
        <mxCell id="EFgii_mU7-cICbm7P2Ep-29" value="" style="html=1;points=[[0,0,0,0,5],[0,1,0,0,-5],[1,0,0,0,5],[1,1,0,0,-5]];perimeter=orthogonalPerimeter;outlineConnect=0;targetShapes=umlLifeline;portConstraint=eastwest;newEdgeStyle={&quot;curved&quot;:0,&quot;rounded&quot;:0};" parent="1" vertex="1">
          <mxGeometry x="-1230" y="-7680" width="10" height="100" as="geometry" />
        </mxCell>
        <mxCell id="EFgii_mU7-cICbm7P2Ep-31" value="" style="endArrow=none;html=1;rounded=0;" parent="1" source="EFgii_mU7-cICbm7P2Ep-35" target="EFgii_mU7-cICbm7P2Ep-17" edge="1">
          <mxGeometry width="50" height="50" relative="1" as="geometry">
            <mxPoint x="-1010" y="-7350" as="sourcePoint" />
            <mxPoint x="-1010.5" y="-8070" as="targetPoint" />
          </mxGeometry>
        </mxCell>
        <mxCell id="EFgii_mU7-cICbm7P2Ep-17" value="" style="html=1;points=[[0,0,0,0,5],[0,1,0,0,-5],[1,0,0,0,5],[1,1,0,0,-5]];perimeter=orthogonalPerimeter;outlineConnect=0;targetShapes=umlLifeline;portConstraint=eastwest;newEdgeStyle={&quot;curved&quot;:0,&quot;rounded&quot;:0};" parent="1" vertex="1">
          <mxGeometry x="-1015" y="-7830" width="10" height="80" as="geometry" />
        </mxCell>
        <mxCell id="EFgii_mU7-cICbm7P2Ep-32" value="Get NotesFrom Details" style="html=1;verticalAlign=bottom;endArrow=block;curved=0;rounded=0;exitX=1;exitY=0.188;exitDx=0;exitDy=0;exitPerimeter=0;" parent="1" edge="1">
          <mxGeometry relative="1" as="geometry">
            <mxPoint x="-1220" y="-7820" as="sourcePoint" />
            <mxPoint x="-1015" y="-7820" as="targetPoint" />
          </mxGeometry>
        </mxCell>
        <mxCell id="EFgii_mU7-cICbm7P2Ep-33" value="Return Notes details if exists" style="html=1;verticalAlign=bottom;endArrow=open;dashed=1;endSize=8;curved=0;rounded=0;exitX=-0.5;exitY=0.86;exitDx=0;exitDy=0;exitPerimeter=0;" parent="1" edge="1">
          <mxGeometry relative="1" as="geometry">
            <mxPoint x="-1220" y="-7759" as="targetPoint" />
            <mxPoint x="-1020" y="-7760" as="sourcePoint" />
            <mxPoint y="1" as="offset" />
          </mxGeometry>
        </mxCell>
        <mxCell id="EFgii_mU7-cICbm7P2Ep-36" value="" style="endArrow=none;html=1;rounded=0;" parent="1" source="EFgii_mU7-cICbm7P2Ep-50" target="EFgii_mU7-cICbm7P2Ep-35" edge="1">
          <mxGeometry width="50" height="50" relative="1" as="geometry">
            <mxPoint x="-1010" y="-7350" as="sourcePoint" />
            <mxPoint x="-1010" y="-7750" as="targetPoint" />
          </mxGeometry>
        </mxCell>
        <mxCell id="EFgii_mU7-cICbm7P2Ep-35" value="" style="html=1;points=[[0,0,0,0,5],[0,1,0,0,-5],[1,0,0,0,5],[1,1,0,0,-5]];perimeter=orthogonalPerimeter;outlineConnect=0;targetShapes=umlLifeline;portConstraint=eastwest;newEdgeStyle={&quot;curved&quot;:0,&quot;rounded&quot;:0};" parent="1" vertex="1">
          <mxGeometry x="-1015" y="-7680" width="10" height="80" as="geometry" />
        </mxCell>
        <mxCell id="EFgii_mU7-cICbm7P2Ep-37" value="Return Notes details if exists" style="html=1;verticalAlign=bottom;endArrow=open;dashed=1;endSize=8;curved=0;rounded=0;exitX=-0.5;exitY=0.86;exitDx=0;exitDy=0;exitPerimeter=0;" parent="1" edge="1">
          <mxGeometry relative="1" as="geometry">
            <mxPoint x="-1220" y="-7619" as="targetPoint" />
            <mxPoint x="-1020" y="-7620" as="sourcePoint" />
            <mxPoint y="1" as="offset" />
          </mxGeometry>
        </mxCell>
        <mxCell id="EFgii_mU7-cICbm7P2Ep-38" value="Get Notes From Details" style="html=1;verticalAlign=bottom;endArrow=block;curved=0;rounded=0;exitX=1;exitY=0.188;exitDx=0;exitDy=0;exitPerimeter=0;" parent="1" edge="1">
          <mxGeometry x="-0.0244" relative="1" as="geometry">
            <mxPoint x="-1220" y="-7660" as="sourcePoint" />
            <mxPoint x="-1015" y="-7660" as="targetPoint" />
            <mxPoint as="offset" />
          </mxGeometry>
        </mxCell>
        <mxCell id="EFgii_mU7-cICbm7P2Ep-47" value="" style="endArrow=none;html=1;rounded=0;" parent="1" target="EFgii_mU7-cICbm7P2Ep-46" edge="1">
          <mxGeometry width="50" height="50" relative="1" as="geometry">
            <mxPoint x="-1420" y="-7290" as="sourcePoint" />
            <mxPoint x="-1420" y="-7600" as="targetPoint" />
          </mxGeometry>
        </mxCell>
        <mxCell id="EFgii_mU7-cICbm7P2Ep-46" value="" style="html=1;points=[[0,0,0,0,5],[0,1,0,0,-5],[1,0,0,0,5],[1,1,0,0,-5]];perimeter=orthogonalPerimeter;outlineConnect=0;targetShapes=umlLifeline;portConstraint=eastwest;newEdgeStyle={&quot;curved&quot;:0,&quot;rounded&quot;:0};" parent="1" vertex="1">
          <mxGeometry x="-1425" y="-7550" width="10" height="110" as="geometry" />
        </mxCell>
        <mxCell id="EFgii_mU7-cICbm7P2Ep-49" value="" style="endArrow=none;html=1;rounded=0;" parent="1" target="EFgii_mU7-cICbm7P2Ep-48" edge="1">
          <mxGeometry width="50" height="50" relative="1" as="geometry">
            <mxPoint x="-1226" y="-7290" as="sourcePoint" />
            <mxPoint x="-1226" y="-7600" as="targetPoint" />
          </mxGeometry>
        </mxCell>
        <mxCell id="EFgii_mU7-cICbm7P2Ep-48" value="" style="html=1;points=[[0,0,0,0,5],[0,1,0,0,-5],[1,0,0,0,5],[1,1,0,0,-5]];perimeter=orthogonalPerimeter;outlineConnect=0;targetShapes=umlLifeline;portConstraint=eastwest;newEdgeStyle={&quot;curved&quot;:0,&quot;rounded&quot;:0};" parent="1" vertex="1">
          <mxGeometry x="-1230" y="-7550" width="10" height="100" as="geometry" />
        </mxCell>
        <mxCell id="EFgii_mU7-cICbm7P2Ep-51" value="" style="endArrow=none;html=1;rounded=0;" parent="1" target="EFgii_mU7-cICbm7P2Ep-50" edge="1">
          <mxGeometry width="50" height="50" relative="1" as="geometry">
            <mxPoint x="-1010" y="-7300" as="sourcePoint" />
            <mxPoint x="-1010" y="-7610" as="targetPoint" />
          </mxGeometry>
        </mxCell>
        <mxCell id="EFgii_mU7-cICbm7P2Ep-50" value="" style="html=1;points=[[0,0,0,0,5],[0,1,0,0,-5],[1,0,0,0,5],[1,1,0,0,-5]];perimeter=orthogonalPerimeter;outlineConnect=0;targetShapes=umlLifeline;portConstraint=eastwest;newEdgeStyle={&quot;curved&quot;:0,&quot;rounded&quot;:0};" parent="1" vertex="1">
          <mxGeometry x="-1015" y="-7540" width="10" height="70" as="geometry" />
        </mxCell>
        <mxCell id="EFgii_mU7-cICbm7P2Ep-53" value="Delete Notes" style="html=1;verticalAlign=bottom;endArrow=block;curved=0;rounded=0;entryX=0;entryY=0;entryDx=0;entryDy=5;" parent="1" edge="1">
          <mxGeometry relative="1" as="geometry">
            <mxPoint x="-1610" y="-7520" as="sourcePoint" />
            <mxPoint x="-1425" y="-7520" as="targetPoint" />
          </mxGeometry>
        </mxCell>
        <mxCell id="EFgii_mU7-cICbm7P2Ep-54" value="Return to main menu&amp;nbsp;&lt;div&gt;if post delete not successful&lt;/div&gt;" style="html=1;verticalAlign=bottom;endArrow=block;curved=0;rounded=0;entryX=0;entryY=0;entryDx=0;entryDy=5;exitX=1;exitY=0;exitDx=0;exitDy=5;exitPerimeter=0;" parent="1" edge="1">
          <mxGeometry x="0.027" relative="1" as="geometry">
            <mxPoint x="-1415" y="-7520" as="sourcePoint" />
            <mxPoint x="-1230" y="-7520" as="targetPoint" />
            <mxPoint as="offset" />
          </mxGeometry>
        </mxCell>
        <mxCell id="EFgii_mU7-cICbm7P2Ep-55" value="Delete Note" style="html=1;verticalAlign=bottom;endArrow=open;dashed=1;endSize=8;curved=0;rounded=0;exitX=0;exitY=1;exitDx=0;exitDy=-5;" parent="1" edge="1">
          <mxGeometry x="-0.027" relative="1" as="geometry">
            <mxPoint x="-1415" y="-7460" as="targetPoint" />
            <mxPoint x="-1230" y="-7460" as="sourcePoint" />
            <mxPoint as="offset" />
          </mxGeometry>
        </mxCell>
        <mxCell id="EFgii_mU7-cICbm7P2Ep-56" value="Get Notes From Details" style="html=1;verticalAlign=bottom;endArrow=block;curved=0;rounded=0;exitX=1;exitY=0.188;exitDx=0;exitDy=0;exitPerimeter=0;" parent="1" edge="1">
          <mxGeometry x="-0.0244" relative="1" as="geometry">
            <mxPoint x="-1220" y="-7520" as="sourcePoint" />
            <mxPoint x="-1015" y="-7520" as="targetPoint" />
            <mxPoint as="offset" />
          </mxGeometry>
        </mxCell>
        <mxCell id="EFgii_mU7-cICbm7P2Ep-57" value="Return Notes details if exists" style="html=1;verticalAlign=bottom;endArrow=open;dashed=1;endSize=8;curved=0;rounded=0;exitX=-0.5;exitY=0.86;exitDx=0;exitDy=0;exitPerimeter=0;" parent="1" edge="1">
          <mxGeometry relative="1" as="geometry">
            <mxPoint x="-1220" y="-7479" as="targetPoint" />
            <mxPoint x="-1020" y="-7480" as="sourcePoint" />
            <mxPoint y="1" as="offset" />
          </mxGeometry>
        </mxCell>
        <mxCell id="EFgii_mU7-cICbm7P2Ep-59" value="" style="endArrow=none;html=1;rounded=0;" parent="1" target="EFgii_mU7-cICbm7P2Ep-58" edge="1">
          <mxGeometry width="50" height="50" relative="1" as="geometry">
            <mxPoint x="-1420" y="-7320" as="sourcePoint" />
            <mxPoint x="-1420" y="-7440" as="targetPoint" />
          </mxGeometry>
        </mxCell>
        <mxCell id="EFgii_mU7-cICbm7P2Ep-58" value="" style="html=1;points=[[0,0,0,0,5],[0,1,0,0,-5],[1,0,0,0,5],[1,1,0,0,-5]];perimeter=orthogonalPerimeter;outlineConnect=0;targetShapes=umlLifeline;portConstraint=eastwest;newEdgeStyle={&quot;curved&quot;:0,&quot;rounded&quot;:0};" parent="1" vertex="1">
          <mxGeometry x="-1425" y="-7410" width="10" height="90" as="geometry" />
        </mxCell>
        <mxCell id="EFgii_mU7-cICbm7P2Ep-60" value="Created_by Notes" style="html=1;verticalAlign=bottom;endArrow=block;curved=0;rounded=0;entryX=0;entryY=0;entryDx=0;entryDy=5;" parent="1" edge="1">
          <mxGeometry relative="1" as="geometry">
            <mxPoint x="-1620" y="-7390" as="sourcePoint" />
            <mxPoint x="-1425" y="-7390" as="targetPoint" />
          </mxGeometry>
        </mxCell>
        <mxCell id="EFgii_mU7-cICbm7P2Ep-61" value="Send Details" style="html=1;verticalAlign=bottom;endArrow=block;curved=0;rounded=0;" parent="1" target="EFgii_mU7-cICbm7P2Ep-64" edge="1">
          <mxGeometry relative="1" as="geometry">
            <mxPoint x="-1415" y="-7390" as="sourcePoint" />
            <mxPoint x="-1230" y="-7390" as="targetPoint" />
          </mxGeometry>
        </mxCell>
        <mxCell id="EFgii_mU7-cICbm7P2Ep-64" value="" style="html=1;points=[[0,0,0,0,5],[0,1,0,0,-5],[1,0,0,0,5],[1,1,0,0,-5]];perimeter=orthogonalPerimeter;outlineConnect=0;targetShapes=umlLifeline;portConstraint=eastwest;newEdgeStyle={&quot;curved&quot;:0,&quot;rounded&quot;:0};" parent="1" vertex="1">
          <mxGeometry x="-1230" y="-7410" width="10" height="90" as="geometry" />
        </mxCell>
        <mxCell id="EFgii_mU7-cICbm7P2Ep-65" value="Get Details" style="html=1;verticalAlign=bottom;endArrow=block;curved=0;rounded=0;exitX=1;exitY=0.188;exitDx=0;exitDy=0;exitPerimeter=0;" parent="1" target="EFgii_mU7-cICbm7P2Ep-66" edge="1">
          <mxGeometry x="-0.0244" relative="1" as="geometry">
            <mxPoint x="-1220" y="-7390" as="sourcePoint" />
            <mxPoint x="-1015" y="-7390" as="targetPoint" />
            <mxPoint as="offset" />
          </mxGeometry>
        </mxCell>
        <mxCell id="EFgii_mU7-cICbm7P2Ep-66" value="" style="html=1;points=[[0,0,0,0,5],[0,1,0,0,-5],[1,0,0,0,5],[1,1,0,0,-5]];perimeter=orthogonalPerimeter;outlineConnect=0;targetShapes=umlLifeline;portConstraint=eastwest;newEdgeStyle={&quot;curved&quot;:0,&quot;rounded&quot;:0};" parent="1" vertex="1">
          <mxGeometry x="-1015" y="-7420" width="10" height="80" as="geometry" />
        </mxCell>
        <mxCell id="EFgii_mU7-cICbm7P2Ep-67" value="Return User details if exists" style="html=1;verticalAlign=bottom;endArrow=open;dashed=1;endSize=8;curved=0;rounded=0;exitX=-0.5;exitY=0.86;exitDx=0;exitDy=0;exitPerimeter=0;" parent="1" edge="1">
          <mxGeometry relative="1" as="geometry">
            <mxPoint x="-1220" y="-7349" as="targetPoint" />
            <mxPoint x="-1020" y="-7350" as="sourcePoint" />
            <mxPoint y="1" as="offset" />
          </mxGeometry>
        </mxCell>
        <mxCell id="EFgii_mU7-cICbm7P2Ep-68" value="Return Data" style="html=1;verticalAlign=bottom;endArrow=open;dashed=1;endSize=8;curved=0;rounded=0;" parent="1" edge="1">
          <mxGeometry x="-0.0053" relative="1" as="geometry">
            <mxPoint x="-1415" y="-7340" as="targetPoint" />
            <mxPoint x="-1226" y="-7340" as="sourcePoint" />
            <mxPoint as="offset" />
          </mxGeometry>
        </mxCell>
        <mxCell id="EFgii_mU7-cICbm7P2Ep-69" value="Show Notes" style="html=1;verticalAlign=bottom;endArrow=open;dashed=1;endSize=8;curved=0;rounded=0;exitX=0;exitY=1;exitDx=0;exitDy=-5;" parent="1" edge="1">
          <mxGeometry x="-0.0256" relative="1" as="geometry">
            <mxPoint x="-1620" y="-7330" as="targetPoint" />
            <mxPoint x="-1425" y="-7330" as="sourcePoint" />
            <mxPoint as="offset" />
          </mxGeometry>
        </mxCell>
      </root>
    </mxGraphModel>
  </diagram>
  <diagram id="tR2GgByVgsWTUs5PG7I2" name="CRUD-matrix">
    <mxGraphModel dx="11801" dy="4128" grid="1" gridSize="10" guides="1" tooltips="1" connect="1" arrows="1" fold="1" page="1" pageScale="1" pageWidth="827" pageHeight="1169" math="0" shadow="0">
      <root>
        <mxCell id="0" />
        <mxCell id="1" parent="0" />
        <mxCell id="7PbXRmagQagemBTNpyTe-1" value="" style="group" parent="1" vertex="1" connectable="0">
          <mxGeometry x="-10680" y="-3390" width="622" height="260" as="geometry" />
        </mxCell>
        <mxCell id="eL-NkWexHhhP7z6sj7b1-1" value="" style="verticalLabelPosition=bottom;verticalAlign=top;html=1;shape=mxgraph.basic.rect;fillColor2=none;strokeWidth=1;size=20;indent=5;fontStyle=1" parent="7PbXRmagQagemBTNpyTe-1" vertex="1">
          <mxGeometry width="622" height="260" as="geometry" />
        </mxCell>
        <mxCell id="eL-NkWexHhhP7z6sj7b1-2" value="" style="endArrow=none;html=1;rounded=0;exitX=0;exitY=0.253;exitDx=0;exitDy=0;exitPerimeter=0;entryX=1;entryY=0.259;entryDx=0;entryDy=0;entryPerimeter=0;" parent="7PbXRmagQagemBTNpyTe-1" source="eL-NkWexHhhP7z6sj7b1-1" target="eL-NkWexHhhP7z6sj7b1-1" edge="1">
          <mxGeometry width="50" height="50" relative="1" as="geometry">
            <mxPoint x="302" y="180" as="sourcePoint" />
            <mxPoint x="352" y="130" as="targetPoint" />
          </mxGeometry>
        </mxCell>
        <mxCell id="eL-NkWexHhhP7z6sj7b1-3" value="" style="endArrow=none;html=1;rounded=0;entryX=1;entryY=0.259;entryDx=0;entryDy=0;entryPerimeter=0;" parent="7PbXRmagQagemBTNpyTe-1" edge="1">
          <mxGeometry width="50" height="50" relative="1" as="geometry">
            <mxPoint x="2" y="170" as="sourcePoint" />
            <mxPoint x="622" y="172" as="targetPoint" />
          </mxGeometry>
        </mxCell>
        <mxCell id="eL-NkWexHhhP7z6sj7b1-5" value="" style="endArrow=none;html=1;rounded=0;exitX=0.145;exitY=0.022;exitDx=0;exitDy=0;exitPerimeter=0;entryX=0.166;entryY=1.028;entryDx=0;entryDy=0;entryPerimeter=0;" parent="7PbXRmagQagemBTNpyTe-1" target="eL-NkWexHhhP7z6sj7b1-1" edge="1">
          <mxGeometry width="50" height="50" relative="1" as="geometry">
            <mxPoint x="103.86000000000058" as="sourcePoint" />
            <mxPoint x="102" y="240" as="targetPoint" />
          </mxGeometry>
        </mxCell>
        <mxCell id="eL-NkWexHhhP7z6sj7b1-6" value="" style="endArrow=none;html=1;rounded=0;exitX=0.145;exitY=0.022;exitDx=0;exitDy=0;exitPerimeter=0;entryX=0.434;entryY=1.015;entryDx=0;entryDy=0;entryPerimeter=0;" parent="7PbXRmagQagemBTNpyTe-1" target="eL-NkWexHhhP7z6sj7b1-1" edge="1">
          <mxGeometry width="50" height="50" relative="1" as="geometry">
            <mxPoint x="272" as="sourcePoint" />
            <mxPoint x="272.1399999999994" y="277" as="targetPoint" />
          </mxGeometry>
        </mxCell>
        <mxCell id="eL-NkWexHhhP7z6sj7b1-8" value="" style="endArrow=none;html=1;rounded=0;exitX=0.145;exitY=0.022;exitDx=0;exitDy=0;exitPerimeter=0;entryX=0.726;entryY=1.018;entryDx=0;entryDy=0;entryPerimeter=0;" parent="7PbXRmagQagemBTNpyTe-1" target="eL-NkWexHhhP7z6sj7b1-1" edge="1">
          <mxGeometry width="50" height="50" relative="1" as="geometry">
            <mxPoint x="452" as="sourcePoint" />
            <mxPoint x="452.1399999999994" y="277" as="targetPoint" />
          </mxGeometry>
        </mxCell>
        <mxCell id="eL-NkWexHhhP7z6sj7b1-10" value="&lt;b style=&quot;font-size: 17px;&quot;&gt;Enity&lt;/b&gt;" style="text;html=1;align=center;verticalAlign=middle;whiteSpace=wrap;rounded=0;fontSize=17;" parent="7PbXRmagQagemBTNpyTe-1" vertex="1">
          <mxGeometry x="22" y="20" width="60" height="30" as="geometry" />
        </mxCell>
        <mxCell id="eL-NkWexHhhP7z6sj7b1-12" value="User" style="text;html=1;align=center;verticalAlign=middle;whiteSpace=wrap;rounded=0;fontStyle=1;fontSize=16;" parent="7PbXRmagQagemBTNpyTe-1" vertex="1">
          <mxGeometry x="322" y="20" width="60" height="30" as="geometry" />
        </mxCell>
        <mxCell id="eL-NkWexHhhP7z6sj7b1-13" value="Admin" style="text;html=1;align=center;verticalAlign=middle;whiteSpace=wrap;rounded=0;fontStyle=1;fontSize=16;" parent="7PbXRmagQagemBTNpyTe-1" vertex="1">
          <mxGeometry x="502" y="20" width="60" height="30" as="geometry" />
        </mxCell>
        <mxCell id="eL-NkWexHhhP7z6sj7b1-14" value="&lt;b&gt;User&lt;/b&gt;" style="text;html=1;align=center;verticalAlign=middle;whiteSpace=wrap;rounded=0;fontSize=14;" parent="7PbXRmagQagemBTNpyTe-1" vertex="1">
          <mxGeometry x="22" y="100" width="60" height="30" as="geometry" />
        </mxCell>
        <mxCell id="eL-NkWexHhhP7z6sj7b1-15" value="Notes" style="text;html=1;align=center;verticalAlign=middle;whiteSpace=wrap;rounded=0;fontSize=15;fontStyle=1" parent="7PbXRmagQagemBTNpyTe-1" vertex="1">
          <mxGeometry x="22" y="200" width="60" height="30" as="geometry" />
        </mxCell>
        <mxCell id="eL-NkWexHhhP7z6sj7b1-17" value="C" style="text;html=1;align=center;verticalAlign=middle;whiteSpace=wrap;rounded=0;fontSize=15;" parent="7PbXRmagQagemBTNpyTe-1" vertex="1">
          <mxGeometry x="152" y="100" width="60" height="30" as="geometry" />
        </mxCell>
        <mxCell id="eL-NkWexHhhP7z6sj7b1-18" value="CRU" style="text;html=1;align=center;verticalAlign=middle;whiteSpace=wrap;rounded=0;fontSize=16;" parent="7PbXRmagQagemBTNpyTe-1" vertex="1">
          <mxGeometry x="322" y="100" width="60" height="30" as="geometry" />
        </mxCell>
        <mxCell id="eL-NkWexHhhP7z6sj7b1-19" value="CRUD" style="text;html=1;align=center;verticalAlign=middle;whiteSpace=wrap;rounded=0;fontSize=16;" parent="7PbXRmagQagemBTNpyTe-1" vertex="1">
          <mxGeometry x="512" y="200" width="60" height="30" as="geometry" />
        </mxCell>
        <mxCell id="eL-NkWexHhhP7z6sj7b1-20" value="CRUD" style="text;html=1;align=center;verticalAlign=middle;whiteSpace=wrap;rounded=0;fontSize=16;" parent="7PbXRmagQagemBTNpyTe-1" vertex="1">
          <mxGeometry x="322" y="200" width="60" height="30" as="geometry" />
        </mxCell>
        <mxCell id="eL-NkWexHhhP7z6sj7b1-21" value="CRUD" style="text;html=1;align=center;verticalAlign=middle;whiteSpace=wrap;rounded=0;fontSize=16;" parent="7PbXRmagQagemBTNpyTe-1" vertex="1">
          <mxGeometry x="512" y="100" width="60" height="30" as="geometry" />
        </mxCell>
        <mxCell id="qP4Tpf8AuI7-7wdBjbdk-2" value="Guest" style="text;html=1;align=center;verticalAlign=middle;whiteSpace=wrap;rounded=0;fontStyle=1;fontSize=16;" parent="7PbXRmagQagemBTNpyTe-1" vertex="1">
          <mxGeometry x="145" y="20" width="60" height="30" as="geometry" />
        </mxCell>
      </root>
    </mxGraphModel>
  </diagram>
</mxfile>
